<?xml version="1.0" standalone="no"?>
<!DOCTYPE svg PUBLIC "-//W3C//DTD SVG 20010904//EN"
 "http://www.w3.org/TR/2001/REC-SVG-20010904/DTD/svg10.dtd">
<svg version="1.0" xmlns="http://www.w3.org/2000/svg"
 width="500.000000pt" height="500.000000pt" viewBox="0 0 500.000000 500.000000"
 preserveAspectRatio="xMidYMid meet">
<metadata>
Created by potrace 1.14, written by Peter Selinger 2001-2017
</metadata>
<g transform="translate(0.000000,500.000000) scale(0.100000,-0.100000)"
fill="#000000" stroke="none">
<path d="M0 2500 l0 -2500 2500 0 2500 0 0 2500 0 2500 -2500 0 -2500 0 0
-2500z m4830 1 c0 -1284 -2 -2336 -3 -2338 -2 -1 -1054 -3 -2338 -3 l-2334 -1
-3 2328 c-1 1280 0 2334 3 2341 3 10 477 12 2340 10 l2336 -3 -1 -2334z"/>
<path d="M4690 2485 l0 -2185 -2185 0 -2185 0 0 -66 c0 -41 4 -63 10 -59 6 3
10 28 10 56 l0 49 2171 0 c1868 0 2172 2 2185 14 12 13 14 317 14 2185 l0
2171 49 0 c28 0 53 5 56 10 4 6 -18 10 -59 10 l-66 0 0 -2185z"/>
<path d="M2657 4214 c-4 -4 -7 -40 -7 -80 l0 -73 -77 -3 -78 -3 0 -75 0 -75
158 -3 158 -3 -3 158 -3 158 -70 3 c-39 1 -74 0 -78 -4z"/>
<path d="M1715 4050 c-4 -6 -5 -41 -4 -78 l3 -67 -80 -5 -79 -5 0 -75 0 -75
158 -3 157 -3 0 161 0 160 -74 0 c-41 0 -78 -5 -81 -10z"/>
<path d="M3437 4053 c-4 -3 -7 -39 -7 -79 l0 -73 -77 -3 -78 -3 0 -75 0 -75
158 -3 157 -3 0 161 0 160 -73 0 c-41 0 -77 -3 -80 -7z"/>
<path d="M2490 3046 l0 -545 -152 -3 -153 -3 -3 -77 -3 -77 78 -3 78 -3 3 -72
3 -72 -78 -3 -78 -3 -3 -77 -3 -77 -77 -3 -77 -3 0 -80 0 -80 80 0 80 0 3 77
3 77 77 3 77 3 3 75 3 75 70 -3 70 -4 -1 -61 c-1 -34 -1 -101 -1 -149 l1 -88
85 0 85 0 0 -75 0 -75 70 0 70 0 0 235 0 235 470 0 470 0 0 70 0 70 -75 0 -75
0 0 85 0 85 -322 2 c-178 2 -351 3 -386 3 l-62 0 0 67 0 67 73 3 72 3 0 80 0
80 -82 3 -83 3 0 304 0 305 -66 0 c-41 0 -63 -4 -59 -10 3 -5 28 -10 56 -10
l49 0 0 -295 c0 -190 4 -295 10 -295 6 0 10 -32 10 -75 l0 -75 -70 0 -70 0 -2
388 c-1 213 -3 421 -3 462 l-2 75 -81 3 -82 3 0 -545z m1100 -726 c0 -6 28
-10 65 -10 l65 0 0 -50 0 -50 -456 0 c-381 0 -458 -2 -470 -14 -11 -12 -14
-57 -14 -235 l0 -221 -50 0 -50 0 0 65 c0 37 -4 65 -10 65 -6 0 -10 83 -10
230 l0 230 465 0 c303 0 465 -3 465 -10z"/>
<path d="M1097 3434 c-4 -4 -7 -40 -7 -80 l0 -73 -77 -3 -78 -3 -3 -77 -3 -78
161 0 161 0 -3 158 -3 157 -70 3 c-39 1 -74 0 -78 -4z"/>
<path d="M3907 3434 c-4 -4 -7 -40 -7 -80 l0 -73 -77 -3 -78 -3 -3 -77 -3 -78
161 0 161 0 -3 158 -3 157 -70 3 c-39 1 -74 0 -78 -4z"/>
<path d="M934 2645 c-2 -5 -5 -41 -6 -79 l-3 -70 -57 3 c-95 4 -98 2 -98 -85
0 -42 4 -74 10 -74 6 0 76 -1 158 -1 l147 0 0 157 0 157 -74 1 c-41 1 -75 -3
-77 -9z"/>
<path d="M4064 2645 c-2 -5 -5 -41 -6 -80 l-3 -69 -75 -1 -75 0 -3 -77 -3 -78
161 0 160 0 0 155 c0 85 -3 155 -7 156 -74 5 -146 2 -149 -6z"/>
<path d="M2937 2623 c-11 -10 -8 -103 3 -103 6 0 10 25 10 55 0 56 -1 60 -13
48z"/>
<path d="M2365 2050 c-4 -6 15 -10 49 -10 31 0 56 5 56 10 0 6 -22 10 -49 10
-28 0 -53 -4 -56 -10z"/>
<path d="M2310 1950 l0 -50 -50 0 c-27 0 -50 -4 -50 -10 0 -6 27 -10 60 -10
l60 0 0 60 c0 33 -4 60 -10 60 -5 0 -10 -22 -10 -50z"/>
<path d="M1088 1793 l-3 -78 -78 -3 -78 -3 3 -77 3 -77 155 0 155 0 3 158 3
157 -80 0 -80 0 -3 -77z"/>
<path d="M3898 1793 l-3 -78 -78 -3 -78 -3 3 -77 3 -77 155 0 155 0 3 158 3
157 -80 0 -80 0 -3 -77z"/>
<path d="M2038 1789 c-1 -33 -1 -63 1 -65 2 -2 33 -4 68 -4 l63 0 0 66 c0 41
-4 63 -10 59 -5 -3 -10 -28 -10 -56 l0 -49 -45 0 -45 0 0 49 c0 72 -18 72 -22
0z"/>
<path d="M1715 1240 c-4 -6 -5 -41 -4 -78 l3 -67 -80 -5 -79 -5 0 -75 0 -75
158 -3 157 -3 0 161 0 160 -74 0 c-41 0 -78 -5 -81 -10z"/>
<path d="M3278 1173 l-3 -78 -77 -3 -78 -3 0 -80 0 -80 158 3 157 3 0 155 0
155 -77 3 -77 3 -3 -78z"/>
<path d="M2499 1083 c0 -4 -2 -39 -2 -78 l-2 -70 -79 -5 -78 -5 0 -67 c1 -38
1 -72 1 -78 1 -12 311 -14 311 -2 0 4 1 75 1 157 l1 150 -76 3 c-42 2 -76 -1
-77 -5z"/>
</g>
</svg>
