<?xml version="1.0" standalone="no"?>
<!DOCTYPE svg PUBLIC "-//W3C//DTD SVG 20010904//EN"
 "http://www.w3.org/TR/2001/REC-SVG-20010904/DTD/svg10.dtd">
<svg version="1.0" xmlns="http://www.w3.org/2000/svg"
 width="424.000000pt" height="424.000000pt" viewBox="0 0 424.000000 424.000000"
 preserveAspectRatio="xMidYMid meet">
<metadata>
Created by potrace 1.14, written by Peter Selinger 2001-2017
</metadata>
<g transform="translate(0.000000,424.000000) scale(0.100000,-0.100000)"
fill="#000000" stroke="none">
<path d="M530 3964 l0 -81 -77 1 -78 1 -3 -81 -3 -80 -77 0 -77 0 -3 -1120 -2
-1121 80 1 80 1 0 -80 0 -81 318 0 317 1 5 -561 5 -560 1518 0 1517 0 -2 1360
-3 1360 -317 0 -318 0 0 240 0 241 -77 -1 -78 0 -5 80 -5 81 -77 -1 -78 -1 0
81 0 81 -557 -1 -558 0 -5 80 -5 81 -75 -1 -75 -1 -5 81 -5 80 -638 1 -637 0
0 -81z"/>
</g>
</svg>
